<?xml version="1.0" encoding="UTF-8"?>
<svg width="144px" height="34px" viewBox="0 0 144 34" version="1.1" xmlns="http://www.w3.org/2000/svg" xmlns:xlink="http://www.w3.org/1999/xlink">
    <!-- Generator: Sketch 48.2 (47327) - http://www.bohemiancoding.com/sketch -->
    <title>Combined Shape Copy 3</title>
    <desc>Created with Sketch.</desc>
    <defs></defs>
    <g id="车型卡片" stroke="none" stroke-width="1" fill="none" fill-rule="evenodd" transform="translate(-242.000000, -546.000000)" opacity="0.200000003">
        <g id="NO.1-速腾的用户是什么样？" transform="translate(241.000000, 546.000000)" fill="#024FAA">
            <path d="M3,4 C1.8954305,4 1,3.1045695 1,2 C1,0.8954305 1.8954305,0 3,0 C4.1045695,0 5,0.8954305 5,2 C5,3.1045695 4.1045695,4 3,4 Z M13,4 C11.8954305,4 11,3.1045695 11,2 C11,0.8954305 11.8954305,0 13,0 C14.1045695,0 15,0.8954305 15,2 C15,3.1045695 14.1045695,4 13,4 Z M23,4 C21.8954305,4 21,3.1045695 21,2 C21,0.8954305 21.8954305,0 23,0 C24.1045695,0 25,0.8954305 25,2 C25,3.1045695 24.1045695,4 23,4 Z M33,4 C31.8954305,4 31,3.1045695 31,2 C31,0.8954305 31.8954305,0 33,0 C34.1045695,0 35,0.8954305 35,2 C35,3.1045695 34.1045695,4 33,4 Z M43,4 C41.8954305,4 41,3.1045695 41,2 C41,0.8954305 41.8954305,0 43,0 C44.1045695,0 45,0.8954305 45,2 C45,3.1045695 44.1045695,4 43,4 Z M53,4 C51.8954305,4 51,3.1045695 51,2 C51,0.8954305 51.8954305,0 53,0 C54.1045695,0 55,0.8954305 55,2 C55,3.1045695 54.1045695,4 53,4 Z M63,4 C61.8954305,4 61,3.1045695 61,2 C61,0.8954305 61.8954305,0 63,0 C64.1045695,0 65,0.8954305 65,2 C65,3.1045695 64.1045695,4 63,4 Z M73,4 C71.8954305,4 71,3.1045695 71,2 C71,0.8954305 71.8954305,0 73,0 C74.1045695,0 75,0.8954305 75,2 C75,3.1045695 74.1045695,4 73,4 Z M83,4 C81.8954305,4 81,3.1045695 81,2 C81,0.8954305 81.8954305,0 83,0 C84.1045695,0 85,0.8954305 85,2 C85,3.1045695 84.1045695,4 83,4 Z M93,4 C91.8954305,4 91,3.1045695 91,2 C91,0.8954305 91.8954305,0 93,0 C94.1045695,0 95,0.8954305 95,2 C95,3.1045695 94.1045695,4 93,4 Z M103,4 C101.895431,4 101,3.1045695 101,2 C101,0.8954305 101.895431,0 103,0 C104.104569,0 105,0.8954305 105,2 C105,3.1045695 104.104569,4 103,4 Z M113,4 C111.895431,4 111,3.1045695 111,2 C111,0.8954305 111.895431,0 113,0 C114.104569,0 115,0.8954305 115,2 C115,3.1045695 114.104569,4 113,4 Z M123,4 C121.895431,4 121,3.1045695 121,2 C121,0.8954305 121.895431,0 123,0 C124.104569,0 125,0.8954305 125,2 C125,3.1045695 124.104569,4 123,4 Z M133,4 C131.895431,4 131,3.1045695 131,2 C131,0.8954305 131.895431,0 133,0 C134.104569,0 135,0.8954305 135,2 C135,3.1045695 134.104569,4 133,4 Z M143,4 C141.895431,4 141,3.1045695 141,2 C141,0.8954305 141.895431,0 143,0 C144.104569,0 145,0.8954305 145,2 C145,3.1045695 144.104569,4 143,4 Z M3,14 C1.8954305,14 1,13.1045695 1,12 C1,10.8954305 1.8954305,10 3,10 C4.1045695,10 5,10.8954305 5,12 C5,13.1045695 4.1045695,14 3,14 Z M13,14 C11.8954305,14 11,13.1045695 11,12 C11,10.8954305 11.8954305,10 13,10 C14.1045695,10 15,10.8954305 15,12 C15,13.1045695 14.1045695,14 13,14 Z M23,14 C21.8954305,14 21,13.1045695 21,12 C21,10.8954305 21.8954305,10 23,10 C24.1045695,10 25,10.8954305 25,12 C25,13.1045695 24.1045695,14 23,14 Z M33,14 C31.8954305,14 31,13.1045695 31,12 C31,10.8954305 31.8954305,10 33,10 C34.1045695,10 35,10.8954305 35,12 C35,13.1045695 34.1045695,14 33,14 Z M43,14 C41.8954305,14 41,13.1045695 41,12 C41,10.8954305 41.8954305,10 43,10 C44.1045695,10 45,10.8954305 45,12 C45,13.1045695 44.1045695,14 43,14 Z M53,14 C51.8954305,14 51,13.1045695 51,12 C51,10.8954305 51.8954305,10 53,10 C54.1045695,10 55,10.8954305 55,12 C55,13.1045695 54.1045695,14 53,14 Z M63,14 C61.8954305,14 61,13.1045695 61,12 C61,10.8954305 61.8954305,10 63,10 C64.1045695,10 65,10.8954305 65,12 C65,13.1045695 64.1045695,14 63,14 Z M73,14 C71.8954305,14 71,13.1045695 71,12 C71,10.8954305 71.8954305,10 73,10 C74.1045695,10 75,10.8954305 75,12 C75,13.1045695 74.1045695,14 73,14 Z M83,14 C81.8954305,14 81,13.1045695 81,12 C81,10.8954305 81.8954305,10 83,10 C84.1045695,10 85,10.8954305 85,12 C85,13.1045695 84.1045695,14 83,14 Z M93,14 C91.8954305,14 91,13.1045695 91,12 C91,10.8954305 91.8954305,10 93,10 C94.1045695,10 95,10.8954305 95,12 C95,13.1045695 94.1045695,14 93,14 Z M103,14 C101.895431,14 101,13.1045695 101,12 C101,10.8954305 101.895431,10 103,10 C104.104569,10 105,10.8954305 105,12 C105,13.1045695 104.104569,14 103,14 Z M113,14 C111.895431,14 111,13.1045695 111,12 C111,10.8954305 111.895431,10 113,10 C114.104569,10 115,10.8954305 115,12 C115,13.1045695 114.104569,14 113,14 Z M123,14 C121.895431,14 121,13.1045695 121,12 C121,10.8954305 121.895431,10 123,10 C124.104569,10 125,10.8954305 125,12 C125,13.1045695 124.104569,14 123,14 Z M133,14 C131.895431,14 131,13.1045695 131,12 C131,10.8954305 131.895431,10 133,10 C134.104569,10 135,10.8954305 135,12 C135,13.1045695 134.104569,14 133,14 Z M143,14 C141.895431,14 141,13.1045695 141,12 C141,10.8954305 141.895431,10 143,10 C144.104569,10 145,10.8954305 145,12 C145,13.1045695 144.104569,14 143,14 Z M3,24 C1.8954305,24 1,23.1045695 1,22 C1,20.8954305 1.8954305,20 3,20 C4.1045695,20 5,20.8954305 5,22 C5,23.1045695 4.1045695,24 3,24 Z M13,24 C11.8954305,24 11,23.1045695 11,22 C11,20.8954305 11.8954305,20 13,20 C14.1045695,20 15,20.8954305 15,22 C15,23.1045695 14.1045695,24 13,24 Z M23,24 C21.8954305,24 21,23.1045695 21,22 C21,20.8954305 21.8954305,20 23,20 C24.1045695,20 25,20.8954305 25,22 C25,23.1045695 24.1045695,24 23,24 Z M33,24 C31.8954305,24 31,23.1045695 31,22 C31,20.8954305 31.8954305,20 33,20 C34.1045695,20 35,20.8954305 35,22 C35,23.1045695 34.1045695,24 33,24 Z M43,24 C41.8954305,24 41,23.1045695 41,22 C41,20.8954305 41.8954305,20 43,20 C44.1045695,20 45,20.8954305 45,22 C45,23.1045695 44.1045695,24 43,24 Z M53,24 C51.8954305,24 51,23.1045695 51,22 C51,20.8954305 51.8954305,20 53,20 C54.1045695,20 55,20.8954305 55,22 C55,23.1045695 54.1045695,24 53,24 Z M63,24 C61.8954305,24 61,23.1045695 61,22 C61,20.8954305 61.8954305,20 63,20 C64.1045695,20 65,20.8954305 65,22 C65,23.1045695 64.1045695,24 63,24 Z M73,24 C71.8954305,24 71,23.1045695 71,22 C71,20.8954305 71.8954305,20 73,20 C74.1045695,20 75,20.8954305 75,22 C75,23.1045695 74.1045695,24 73,24 Z M83,24 C81.8954305,24 81,23.1045695 81,22 C81,20.8954305 81.8954305,20 83,20 C84.1045695,20 85,20.8954305 85,22 C85,23.1045695 84.1045695,24 83,24 Z M93,24 C91.8954305,24 91,23.1045695 91,22 C91,20.8954305 91.8954305,20 93,20 C94.1045695,20 95,20.8954305 95,22 C95,23.1045695 94.1045695,24 93,24 Z M103,24 C101.895431,24 101,23.1045695 101,22 C101,20.8954305 101.895431,20 103,20 C104.104569,20 105,20.8954305 105,22 C105,23.1045695 104.104569,24 103,24 Z M113,24 C111.895431,24 111,23.1045695 111,22 C111,20.8954305 111.895431,20 113,20 C114.104569,20 115,20.8954305 115,22 C115,23.1045695 114.104569,24 113,24 Z M123,24 C121.895431,24 121,23.1045695 121,22 C121,20.8954305 121.895431,20 123,20 C124.104569,20 125,20.8954305 125,22 C125,23.1045695 124.104569,24 123,24 Z M133,24 C131.895431,24 131,23.1045695 131,22 C131,20.8954305 131.895431,20 133,20 C134.104569,20 135,20.8954305 135,22 C135,23.1045695 134.104569,24 133,24 Z M143,24 C141.895431,24 141,23.1045695 141,22 C141,20.8954305 141.895431,20 143,20 C144.104569,20 145,20.8954305 145,22 C145,23.1045695 144.104569,24 143,24 Z M3,34 C1.8954305,34 1,33.1045695 1,32 C1,30.8954305 1.8954305,30 3,30 C4.1045695,30 5,30.8954305 5,32 C5,33.1045695 4.1045695,34 3,34 Z M13,34 C11.8954305,34 11,33.1045695 11,32 C11,30.8954305 11.8954305,30 13,30 C14.1045695,30 15,30.8954305 15,32 C15,33.1045695 14.1045695,34 13,34 Z M23,34 C21.8954305,34 21,33.1045695 21,32 C21,30.8954305 21.8954305,30 23,30 C24.1045695,30 25,30.8954305 25,32 C25,33.1045695 24.1045695,34 23,34 Z M33,34 C31.8954305,34 31,33.1045695 31,32 C31,30.8954305 31.8954305,30 33,30 C34.1045695,30 35,30.8954305 35,32 C35,33.1045695 34.1045695,34 33,34 Z M43,34 C41.8954305,34 41,33.1045695 41,32 C41,30.8954305 41.8954305,30 43,30 C44.1045695,30 45,30.8954305 45,32 C45,33.1045695 44.1045695,34 43,34 Z M53,34 C51.8954305,34 51,33.1045695 51,32 C51,30.8954305 51.8954305,30 53,30 C54.1045695,30 55,30.8954305 55,32 C55,33.1045695 54.1045695,34 53,34 Z M63,34 C61.8954305,34 61,33.1045695 61,32 C61,30.8954305 61.8954305,30 63,30 C64.1045695,30 65,30.8954305 65,32 C65,33.1045695 64.1045695,34 63,34 Z M73,34 C71.8954305,34 71,33.1045695 71,32 C71,30.8954305 71.8954305,30 73,30 C74.1045695,30 75,30.8954305 75,32 C75,33.1045695 74.1045695,34 73,34 Z M83,34 C81.8954305,34 81,33.1045695 81,32 C81,30.8954305 81.8954305,30 83,30 C84.1045695,30 85,30.8954305 85,32 C85,33.1045695 84.1045695,34 83,34 Z M93,34 C91.8954305,34 91,33.1045695 91,32 C91,30.8954305 91.8954305,30 93,30 C94.1045695,30 95,30.8954305 95,32 C95,33.1045695 94.1045695,34 93,34 Z M103,34 C101.895431,34 101,33.1045695 101,32 C101,30.8954305 101.895431,30 103,30 C104.104569,30 105,30.8954305 105,32 C105,33.1045695 104.104569,34 103,34 Z M113,34 C111.895431,34 111,33.1045695 111,32 C111,30.8954305 111.895431,30 113,30 C114.104569,30 115,30.8954305 115,32 C115,33.1045695 114.104569,34 113,34 Z M123,34 C121.895431,34 121,33.1045695 121,32 C121,30.8954305 121.895431,30 123,30 C124.104569,30 125,30.8954305 125,32 C125,33.1045695 124.104569,34 123,34 Z M133,34 C131.895431,34 131,33.1045695 131,32 C131,30.8954305 131.895431,30 133,30 C134.104569,30 135,30.8954305 135,32 C135,33.1045695 134.104569,34 133,34 Z M143,34 C141.895431,34 141,33.1045695 141,32 C141,30.8954305 141.895431,30 143,30 C144.104569,30 145,30.8954305 145,32 C145,33.1045695 144.104569,34 143,34 Z" id="Combined-Shape-Copy-3"></path>
        </g>
    </g>
</svg>