<?xml version="1.0" encoding="UTF-8"?>
<svg width="14px" height="14px" viewBox="0 0 14 14" version="1.1" xmlns="http://www.w3.org/2000/svg" xmlns:xlink="http://www.w3.org/1999/xlink">
    <!-- Generator: Sketch 48.2 (47327) - http://www.bohemiancoding.com/sketch -->
    <title>Prompt</title>
    <desc>Created with Sketch.</desc>
    <defs>
        <polygon id="path-1" points="0.0002 0.0001 14 0.0001 14 14 0.0002 14"></polygon>
    </defs>
    <g id="区域特征" stroke="none" stroke-width="1" fill="none" fill-rule="evenodd" transform="translate(-1792.000000, -212.000000)">
        <g id="icon" transform="translate(1792.000000, 212.000000)">
            <g id="Prompt">
                <mask id="mask-2" fill="white">
                    <use xlink:href="#path-1"></use>
                </mask>
                <g id="Clip-2"></g>
                <path d="M8.2002,3.6001 C8.2002,4.3001 7.6002,4.8001 7.0002,4.8001 C6.4002,4.8001 5.8002,4.3001 5.8002,3.6001 C5.8002,2.9001 6.3002,2.3001 7.0002,2.3001 C7.7002,2.3001 8.2002,2.9001 8.2002,3.6001 Z M7.8002,11.2001 C7.8002,11.7001 7.5002,12.0001 7.0002,12.0001 C6.5002,12.0001 6.2002,11.7001 6.2002,11.2001 L6.2002,6.6001 C6.2002,6.1001 6.5002,5.8001 7.0002,5.8001 C7.5002,5.8001 7.8002,6.1001 7.8002,6.6001 L7.8002,11.2001 Z M7.0002,0.0001 C3.1002,0.0001 0.0002,3.1001 0.0002,7.0001 C0.0002,10.9001 3.1002,14.0001 7.0002,14.0001 C10.9002,14.0001 14.0002,10.9001 14.0002,7.0001 C14.0002,3.1001 10.9002,0.0001 7.0002,0.0001 Z" id="Fill-1" fill="#B9B9C2" mask="url(#mask-2)"></path>
            </g>
        </g>
    </g>
</svg>