<?xml version="1.0" encoding="UTF-8"?>
<svg width="16px" height="16px" viewBox="0 0 16 16" version="1.1" xmlns="http://www.w3.org/2000/svg" xmlns:xlink="http://www.w3.org/1999/xlink">
    <!-- Generator: Sketch 48.2 (47327) - http://www.bohemiancoding.com/sketch -->
    <title>Combined Shape</title>
    <desc>Created with Sketch.</desc>
    <defs></defs>
    <g id="场景分析" stroke="none" stroke-width="1" fill="none" fill-rule="evenodd" transform="translate(-16.000000, -711.000000)" opacity="0.5">
        <g id="侧边导航" transform="translate(-2.000000, 0.000000)" fill="#D8D8D8">
            <path d="M20,711 L23,711 C24.1045695,711 25,711.895431 25,713 L25,716 C25,717.104569 24.1045695,718 23,718 L20,718 C18.8954305,718 18,717.104569 18,716 L18,713 C18,711.895431 18.8954305,711 20,711 Z M29,711 L32,711 C33.1045695,711 34,711.895431 34,713 L34,716 C34,717.104569 33.1045695,718 32,718 L29,718 C27.8954305,718 27,717.104569 27,716 L27,713 C27,711.895431 27.8954305,711 29,711 Z M29,720 L32,720 C33.1045695,720 34,720.895431 34,722 L34,725 C34,726.104569 33.1045695,727 32,727 L29,727 C27.8954305,727 27,726.104569 27,725 L27,722 C27,720.895431 27.8954305,720 29,720 Z M20,720 L23,720 C24.1045695,720 25,720.895431 25,722 L25,725 C25,726.104569 24.1045695,727 23,727 L20,727 C18.8954305,727 18,726.104569 18,725 L18,722 C18,720.895431 18.8954305,720 20,720 Z" id="Combined-Shape"></path>
        </g>
    </g>
</svg>