<?xml version="1.0" encoding="UTF-8"?>
<svg width="15px" height="10px" viewBox="0 0 15 10" version="1.1" xmlns="http://www.w3.org/2000/svg" xmlns:xlink="http://www.w3.org/1999/xlink">
    <!-- Generator: Sketch 48.2 (47327) - http://www.bohemiancoding.com/sketch -->
    <title>woman</title>
    <desc>Created with Sketch.</desc>
    <defs>
        <polygon id="path-1" points="0 0.00041 15.006 0.00041 15.006 9.46141 0 9.46141"></polygon>
    </defs>
    <g id="基础属性" stroke="none" stroke-width="1" fill="none" fill-rule="evenodd" transform="translate(-435.000000, -552.000000)">
        <g id="woman" transform="translate(435.000000, 552.000000)">
            <mask id="mask-2" fill="white">
                <use xlink:href="#path-1"></use>
            </mask>
            <g id="Clip-2"></g>
            <path d="M13.5789,0.06951 C13.5289,0.11151 8.8709,4.25651 6.9839,5.95251 C6.7189,6.19351 6.3219,6.30851 5.7839,6.30851 C4.6669,6.30851 3.4089,5.78751 3.3929,5.77851 C3.3179,5.74651 3.2269,5.75451 3.1529,5.79551 C2.8299,5.97751 -0.0001,7.59051 -0.0001,9.18851 C-0.0001,9.33751 0.1239,9.46151 0.2729,9.46151 L5.4359,9.46151 C6.4129,9.46151 7.7289,8.51751 9.7229,7.08651 C10.0699,6.83851 10.4429,6.56551 10.8399,6.29251 C11.1379,6.08551 11.4109,5.91151 11.6759,5.77051 C11.7669,5.80351 11.8659,5.93651 11.8659,6.24251 C11.8659,6.48251 11.8989,9.08151 11.9069,9.19651 C11.9069,9.34551 12.0309,9.46151 12.1809,9.46151 L13.2309,9.46151 C13.3059,9.46151 13.3719,9.43651 13.4219,9.37951 C13.4719,9.32951 13.5049,9.25451 13.5049,9.18851 L13.5049,7.30151 C13.5049,5.88651 14.0009,5.08451 14.1499,4.86851 C14.6299,4.73651 15.0019,4.56251 15.0019,4.02551 C15.0109,3.90851 15.0939,1.23651 13.9429,0.08651 C13.8519,-0.02149 13.6859,-0.02949 13.5789,0.06951" id="Fill-1" fill="#252834" mask="url(#mask-2)"></path>
        </g>
    </g>
</svg>