<?xml version="1.0" encoding="UTF-8"?>
<svg width="14px" height="13px" viewBox="0 0 14 13" version="1.1" xmlns="http://www.w3.org/2000/svg" xmlns:xlink="http://www.w3.org/1999/xlink">
    <!-- Generator: Sketch 48.2 (47327) - http://www.bohemiancoding.com/sketch -->
    <title>man</title>
    <desc>Created with Sketch.</desc>
    <defs>
        <polygon id="path-1" points="0 0.869 13.934 0.869 13.934 13 0 13"></polygon>
    </defs>
    <g id="基础属性" stroke="none" stroke-width="1" fill="none" fill-rule="evenodd" transform="translate(-438.000000, -331.000000)">
        <g id="man" transform="translate(438.000000, 331.000000)">
            <polygon id="Fill-1" fill="#000000" points="1 13 10 13 10 11 1 11"></polygon>
            <g id="Group-5">
                <mask id="mask-2" fill="white">
                    <use xlink:href="#path-1"></use>
                </mask>
                <g id="Clip-3"></g>
                <path d="M10.361,12.377 L10.984,12.377 L10.984,10.778 L10.361,10.778 L10.361,12.377 Z M11.409,10.138 L10.135,10.138 L0.418,10.138 C0.242,10.138 0,10.297 0,10.473 L0,12.704 C0,12.879 0.242,13 0.418,13 L10.135,13 L11.409,13 C11.585,13 11.624,12.879 11.624,12.704 L11.624,10.473 C11.624,10.297 11.585,10.138 11.409,10.138 Z" id="Fill-2" fill="#252834" mask="url(#mask-2)"></path>
                <path d="M12.7365,4.2149 C12.6335,4.1319 12.5285,4.0539 12.4245,3.9759 C11.7155,3.4509 11.2045,3.0709 12.1925,1.3449 C12.1965,1.3389 12.1985,1.3319 12.2015,1.3259 C12.2075,1.3149 12.2135,1.3029 12.2165,1.2909 C12.2205,1.2809 12.2225,1.2709 12.2245,1.2609 C12.2275,1.2509 12.2295,1.2409 12.2315,1.2309 C12.2325,1.2199 12.2325,1.2099 12.2335,1.1989 C12.2335,1.1889 12.2345,1.1789 12.2345,1.1689 C12.2335,1.1579 12.2315,1.1479 12.2295,1.1369 C12.2285,1.1269 12.2275,1.1179 12.2245,1.1089 C12.2215,1.0949 12.2165,1.0829 12.2125,1.0699 C12.2095,1.0649 12.2085,1.0579 12.2055,1.0519 C12.2045,1.0509 12.2045,1.0499 12.2035,1.0489 C12.1975,1.0359 12.1895,1.0239 12.1805,1.0109 C12.1775,1.0059 12.1745,0.9999 12.1715,0.9949 C12.1645,0.9859 12.1555,0.9779 12.1475,0.9699 C12.1415,0.9629 12.1355,0.9559 12.1295,0.9489 C12.1225,0.9439 12.1155,0.9399 12.1085,0.9339 C12.0975,0.9269 12.0895,0.9189 12.0785,0.9119 C12.0765,0.9119 12.0765,0.9109 12.0755,0.9099 C12.0665,0.9059 12.0575,0.9029 12.0495,0.8989 C12.0405,0.8949 12.0315,0.8899 12.0215,0.8869 C12.0095,0.8819 11.9975,0.8799 11.9845,0.8769 C11.9775,0.8759 11.9695,0.8729 11.9625,0.8719 C11.9495,0.8699 11.9365,0.8699 11.9235,0.8699 C11.9155,0.8699 11.9085,0.8689 11.9005,0.8689 C11.8865,0.8699 11.8745,0.8719 11.8615,0.8749 C11.8535,0.8759 11.8455,0.8769 11.8395,0.8789 C11.8245,0.8819 11.8095,0.8879 11.7965,0.8929 C11.7915,0.8949 11.7865,0.8959 11.7815,0.8979 C11.7805,0.8989 11.7795,0.8999 11.7785,0.8999 C11.7765,0.9009 11.7745,0.9019 11.7735,0.9019 C10.4025,1.5459 9.9905,2.3779 9.8865,2.9639 C9.7555,3.7039 10.0395,4.5109 10.6465,5.1219 C10.6955,5.1719 10.7475,5.2219 10.7995,5.2759 C11.3165,5.7849 11.9585,6.4199 11.9375,7.1759 C11.9245,7.6799 11.6075,8.2109 10.9965,8.7529 L10.9905,8.7579 C10.9815,8.7669 10.9735,8.7759 10.9655,8.7859 L10.9485,8.8059 C10.9425,8.8159 10.9365,8.8249 10.9315,8.8349 C10.9265,8.8429 10.9225,8.8509 10.9185,8.8609 C10.9135,8.8699 10.9105,8.8809 10.9075,8.8899 C10.9035,8.8989 10.9005,8.9089 10.8985,8.9189 C10.8955,8.9279 10.8945,8.9389 10.8935,8.9499 C10.8915,8.9599 10.8905,8.9689 10.8895,8.9789 C10.8895,8.9889 10.8905,8.9999 10.8905,9.0089 C10.8915,9.0199 10.8925,9.0309 10.8935,9.0409 C10.8955,9.0499 10.8975,9.0589 10.9005,9.0679 C10.9035,9.0799 10.9065,9.0909 10.9105,9.1019 C10.9115,9.1049 10.9115,9.1079 10.9135,9.1109 C10.9145,9.1149 10.9175,9.1169 10.9185,9.1209 C10.9285,9.1429 10.9415,9.1649 10.9575,9.1839 C10.9605,9.1889 10.9635,9.1929 10.9655,9.1969 C10.9665,9.1989 10.9675,9.2009 10.9695,9.2019 C10.9875,9.2219 11.0075,9.2379 11.0275,9.2529 C11.0335,9.2569 11.0395,9.2589 11.0455,9.2619 C11.0635,9.2739 11.0835,9.2829 11.1035,9.2899 C11.1115,9.2929 11.1185,9.2959 11.1265,9.2979 C11.1525,9.3039 11.1775,9.3079 11.2045,9.3089 L11.2085,9.3089 C11.2145,9.3089 11.2205,9.3079 11.2265,9.3069 C11.2405,9.3069 11.2535,9.3059 11.2655,9.3039 C11.2715,9.3019 11.2785,9.2999 11.2845,9.2979 C11.2985,9.2959 11.3105,9.2919 11.3245,9.2869 C11.3255,9.2869 11.3275,9.2859 11.3285,9.2859 C13.2705,8.4929 13.8045,7.4709 13.9115,6.7529 C14.0435,5.8669 13.6035,4.9179 12.7365,4.2149" id="Fill-4" fill="#252834" mask="url(#mask-2)"></path>
            </g>
        </g>
    </g>
</svg>