<?xml version="1.0" encoding="UTF-8"?>
<svg width="16px" height="11px" viewBox="0 0 16 11" version="1.1" xmlns="http://www.w3.org/2000/svg" xmlns:xlink="http://www.w3.org/1999/xlink">
    <!-- Generator: Sketch 48.2 (47327) - http://www.bohemiancoding.com/sketch -->
    <title>download</title>
    <desc>Created with Sketch.</desc>
    <defs>
        <polygon id="path-1" points="0 0 16 0 16 11 0 11"></polygon>
    </defs>
    <g id="区域特征" stroke="none" stroke-width="1" fill="none" fill-rule="evenodd" transform="translate(-1789.000000, -155.000000)">
        <g id="download" transform="translate(1789.000000, 155.000000)">
            <mask id="mask-2" fill="white">
                <use xlink:href="#path-1"></use>
            </mask>
            <g id="Clip-2"></g>
            <path d="M10.7850652,6.59946838 L8.6905565,8.58796879 C8.46750175,8.79973419 8.15497997,8.8427854 7.88780449,8.75668298 L7.84368377,8.75668298 C7.75421675,8.71479532 7.66474974,8.67290766 7.57528272,8.58796879 L5.48077404,6.59946838 C5.21359856,6.34581532 5.21359856,5.88039685 5.48077404,5.62674378 C5.74917509,5.37309072 6.23940533,5.37309072 6.5065808,5.62674378 L7.39757426,6.47264185 L7.39757426,4.23048838 C7.39757426,3.85000878 7.71009603,3.5533045 8.11085925,3.5533045 C8.51162247,3.5533045 8.82291867,3.85000878 8.82291867,4.23048838 L8.82291867,6.47264185 L9.7151377,5.62674378 C10.0276595,5.33003951 10.4725434,5.33003951 10.7850652,5.62674378 C11.0963614,5.88039685 11.0963614,6.30392765 10.7850652,6.59946838 M13.4592711,4.86462104 C13.1908701,4.82273338 13.011936,4.61096797 13.011936,4.35731491 C13.011936,2.49564104 11.7655257,0.760793694 9.89284616,0.210436355 C7.30810724,-0.551686387 4.85695606,0.845732565 4.09955035,2.9610595 C4.05542963,3.13093724 3.87649559,3.25660023 3.69878713,3.29965144 C1.60427845,3.68013104 0,5.45802959 0,7.57335653 L0,7.61524419 C0,9.51880572 1.69374546,11 3.65466641,11 L12.7901069,11 C14.5733193,10.9581123 15.9986637,9.60374459 15.9986637,7.91078492 C16.04401,6.42959064 14.9299618,5.20321298 13.4592711,4.86462104" id="Fill-1" fill="#B9B9C2" mask="url(#mask-2)"></path>
        </g>
    </g>
</svg>