<?xml version="1.0" encoding="UTF-8"?>
<svg width="16px" height="16px" viewBox="0 0 16 16" version="1.1" xmlns="http://www.w3.org/2000/svg" xmlns:xlink="http://www.w3.org/1999/xlink">
    <!-- Generator: Sketch 48.2 (47327) - http://www.bohemiancoding.com/sketch -->
    <title>icon-Navigation-user</title>
    <desc>Created with Sketch.</desc>
    <defs>
        <polygon id="path-1" points="4.46100392e-05 0.216190226 15.5054106 0.216190226 15.5054106 7 4.46100392e-05 7"></polygon>
    </defs>
    <g id="基础属性" stroke="none" stroke-width="1" fill="none" fill-rule="evenodd" transform="translate(-18.000000, -397.000000)" opacity="0.50390625">
        <g id="侧边导航">
            <g id="icon-Navigation-user" transform="translate(18.000000, 397.000000)">
                <path d="M3.00000009,4.99973571 C2.99947133,7.76103624 5.23720394,9.99947132 7.99894247,10 C10.7601522,10 12.9994711,7.76262228 12.9999999,5.00132175 L12.9999999,4.99973571 C13.0005287,2.23896386 10.7617385,0.000528774588 8.00052876,9.3652023e-08 C5.239319,-0.000528587284 3.00000009,2.23737782 3.00000009,4.99814966 L3.00000009,4.99973571 Z" id="Fill-1" fill="#FFFFFF"></path>
                <g id="Group-5" transform="translate(0.000000, 9.000000)">
                    <mask id="mask-2" fill="white">
                        <use xlink:href="#path-1"></use>
                    </mask>
                    <g id="Clip-4"></g>
                    <path d="M12.4539355,0.4292 C12.0683871,0.1352 11.5166452,0.1622 11.1579355,0.5092 C10.275871,1.3637 9.06296774,1.8982 7.71174194,1.8982 C6.36051613,1.8982 5.14709677,1.3637 4.26503226,0.5092 C3.90632258,0.1622 3.35509677,0.1082 2.96903226,0.4292 C1.48,1.6577 0.377548387,3.2337 0.0188387097,5.3977 C-0.118967742,6.2787 0.515354839,7.0002 1.45264516,7.0002 L14.0534194,7.0002 C14.9633548,7.0002 15.6250323,6.2787 15.4872258,5.3977 C15.1011613,3.2337 13.9981935,1.6577 12.4539355,0.4292" id="Fill-3" fill="#FFFFFF" mask="url(#mask-2)"></path>
                </g>
            </g>
        </g>
    </g>
</svg>