<?xml version="1.0" encoding="UTF-8"?>
<svg width="14px" height="14px" viewBox="0 0 14 14" version="1.1" xmlns="http://www.w3.org/2000/svg" xmlns:xlink="http://www.w3.org/1999/xlink">
    <!-- Generator: Sketch 48.2 (47327) - http://www.bohemiancoding.com/sketch -->
    <title>inagedw</title>
    <desc>Created with Sketch.</desc>
    <defs>
        <polygon id="path-1" points="0.000186666667 0.56 13.42432 0.56 13.42432 13.99972 0.000186666667 13.99972"></polygon>
    </defs>
    <g id="区域特征" stroke="none" stroke-width="1" fill="none" fill-rule="evenodd" transform="translate(-1822.000000, -212.000000)">
        <g id="icon" transform="translate(1792.000000, 212.000000)">
            <g id="inagedw" transform="translate(30.000000, 0.000000)">
                <g id="Group-3">
                    <mask id="mask-2" fill="white">
                        <use xlink:href="#path-1"></use>
                    </mask>
                    <g id="Clip-2"></g>
                    <path d="M12.0812533,5.41305333 C11.3737867,5.44292 10.7568533,5.55025333 10.22952,5.73412 C9.70125333,5.91892 9.23085333,6.14292 8.81832,6.40612 C8.40578667,6.67025333 8.02405333,6.95398667 7.67592,7.25732 C7.32778667,7.56158667 6.97125333,7.83972 6.60818667,8.09358667 C6.24512,8.34838667 5.85872,8.56212 5.45085333,8.73665333 C5.04205333,8.91025333 4.56978667,8.99705333 4.03218667,8.99705333 C3.68312,8.99705333 3.36765333,8.95038667 3.08392,8.85518667 C2.80018667,8.76092 2.54632,8.64612 2.32232,8.51172 C2.09832,8.37732 1.90418667,8.23265333 1.73992,8.07865333 C1.57565333,7.92465333 1.44405333,7.78745333 1.34418667,7.66798667 L1.34418667,2.32185333 L1.34418667,2.30692 C1.34418667,2.19772 1.38432,2.10065333 1.46365333,2.01572 C1.54298667,1.93172 1.64285333,1.88878667 1.76232,1.88878667 L11.6481867,1.88878667 C11.7676533,1.88878667 11.8693867,1.93172 11.95432,2.01572 C12.03832,2.10065333 12.0812533,2.19772 12.0812533,2.30692 L12.0812533,5.41305333 Z M11.4689867,11.2286533 L9.87392,12.82372 C9.70405333,12.9935867 9.46605333,13.02812 9.26258667,12.9599867 L9.22805333,12.9599867 C9.16085333,12.9263867 9.09272,12.8927867 9.02552,12.82372 L7.43045333,11.2286533 C7.22605333,11.02612 7.22605333,10.6518533 7.43045333,10.44932 C7.63298667,10.24492 8.00725333,10.24492 8.21072,10.44932 L8.88925333,11.12692 L8.88925333,9.32838667 C8.88925333,9.02318667 9.12725333,8.78518667 9.43245333,8.78518667 C9.73765333,8.78518667 9.97565333,9.02318667 9.97565333,9.32838667 L9.97565333,11.12692 L10.6541867,10.44932 C10.8921867,10.21132 11.2309867,10.21132 11.4689867,10.44932 C11.7069867,10.6518533 11.7069867,10.99252 11.4689867,11.2286533 Z M13.1041867,0.98532 C12.88952,0.701586667 12.52832,0.55972 12.02152,0.55972 L1.09032,0.55972 C0.761786667,0.55972 0.497653333,0.67732 0.298853333,0.910653333 C0.100053333,1.14492 0.000186666667,1.44078667 0.000186666667,1.79918667 L0.000186666667,12.7303867 C0.000186666667,13.0794533 0.116853333,13.3771867 0.35112,13.6263867 C0.585386667,13.8755867 0.856053333,13.99972 1.16498667,13.99972 L12.1708533,13.99972 C12.3500533,13.99972 12.51432,13.9651867 12.6636533,13.8951867 C12.8129867,13.82612 12.9445867,13.73652 13.0593867,13.6263867 C13.1741867,13.5171867 13.2637867,13.3902533 13.3281867,13.24652 C13.3925867,13.10092 13.42432,12.9599867 13.42432,12.82092 L13.42432,2.09785333 C13.42432,1.64052 13.31792,1.26905333 13.1041867,0.98532 Z" id="Fill-1" fill="#B9B9C2" mask="url(#mask-2)"></path>
                </g>
                <path d="M4.55882353,3.44354839 C4.42546791,3.30947581 4.26504011,3.2016129 4.07754011,3.12096774 C3.89004011,3.04032258 3.69552139,3 3.49197861,3 C3.28843583,3 3.09592246,3.04032258 2.9144385,3.12096774 C2.73295455,3.2016129 2.57453209,3.30947581 2.44117647,3.44354839 C2.30681818,3.57762097 2.20053476,3.73689516 2.12032086,3.91935484 C2.04010695,4.10181452 2,4.2953629 2,4.5 C2,4.71471774 2.04010695,4.91129032 2.12032086,5.08870968 C2.20053476,5.26612903 2.30681818,5.42439516 2.44117647,5.56451613 C2.57453209,5.7046371 2.73295455,5.8125 2.9144385,5.88709677 C3.09592246,5.96270161 3.28843583,6 3.49197861,6 C3.90909091,6 4.26504011,5.85483871 4.55882353,5.56451613 C4.85260695,5.27419355 5,4.91935484 5,4.5 C5,4.2953629 4.95989305,4.10181452 4.87967914,3.91935484 C4.79946524,3.73689516 4.69217914,3.57762097 4.55882353,3.44354839" id="Fill-4" fill="#B9B9C2"></path>
            </g>
        </g>
    </g>
</svg>