<?xml version="1.0" encoding="UTF-8"?>
<svg width="18px" height="14px" viewBox="0 0 18 14" version="1.1" xmlns="http://www.w3.org/2000/svg" xmlns:xlink="http://www.w3.org/1999/xlink">
    <!-- Generator: Sketch 48.2 (47327) - http://www.bohemiancoding.com/sketch -->
    <title>icon-Navigation-car</title>
    <desc>Created with Sketch.</desc>
    <defs></defs>
    <g id="基础属性" stroke="none" stroke-width="1" fill="none" fill-rule="evenodd" transform="translate(-17.000000, -246.000000)" opacity="0.5">
        <g id="侧边导航" fill="#FFFFFF">
            <g id="Group-3" transform="translate(0.000000, 124.000000)">
                <g id="icon-Navigation-car" transform="translate(17.000000, 122.000000)">
                    <path d="M14.893004,9.6643759 C14.2301602,9.66614302 13.6923984,9.07327492 13.6905724,8.33992094 C13.6887464,7.60656695 14.2246821,7.01016462 14.886613,7.00928106 C15.5503698,7.00751394 16.0890446,7.60038204 16.0908706,8.33373602 C16.0908706,9.06974069 15.5567609,9.66349235 14.893004,9.6643759 M12.4863147,9.44083547 L5.5200632,9.44967106 C4.4335836,9.45232174 4.4107584,7.63925864 5.51549816,7.63660796 L12.4817497,7.6207039 C13.4988407,7.61805322 13.5034057,9.43906835 12.4863147,9.44083547 M3.11519995,9.69176623 C2.45053008,9.69264979 1.91185532,9.10066525 1.9100293,8.36642771 C1.90820329,7.63395728 2.44413902,7.03755495 3.10789589,7.03578783 C3.76982674,7.03490427 4.30758849,7.62777237 4.31032751,8.36112635 C4.31215353,9.09624746 3.7771308,9.68999912 3.11519995,9.69176623 M5.12107867,1.0258194 L12.8469529,1.00814822 C13.9233894,1.00549754 14.8656138,2.41565773 15.2216869,4.328563 C15.0582585,4.29675488 14.8847869,4.27731658 14.7058374,4.26759743 C14.7058374,4.26317963 14.7104024,4.25434404 14.7067504,4.2552276 C13.2532415,4.25876184 13.7070065,4.25699472 12.6835245,4.2596454 C11.6600424,4.26229608 12.0197676,4.26141252 10.9981116,4.26406319 L3.5278796,4.28085081 C3.2567162,4.28173437 3.00016093,4.31000826 2.7582138,4.35772045 C3.10789589,2.4421645 4.04555517,1.02758651 5.12107867,1.0258194 M16.2068226,4.69170576 C15.8735747,1.97564534 14.5141057,-0.00441041726 12.8433009,7.37782753e-06 L5.11742664,0.0176785582 C3.44662188,0.0212127942 2.09628295,2.00656991 1.77490411,4.72439744 C0.601688743,5.40032009 -0.00363560523,6.7777886 1.642704e-05,8.3708455 C0.00275545124,9.55393103 0.34330746,10.6150854 0.997934244,11.3590421 L1.0043253,14 L4.04007712,13.9938151 L4.03642509,12.4458197 L13.984561,12.4228472 L13.988213,13.9708426 L17.0239648,13.9628905 L17.0175738,11.3210491 C17.6685485,10.5753253 18.0036225,9.51240375 17.9999705,8.32931823 C17.9963184,6.738912 17.384603,5.36321061 16.2068226,4.69170576" id="car"></path>
                </g>
            </g>
        </g>
    </g>
</svg>