<svg id="图层_1" data-name="图层 1" xmlns="http://www.w3.org/2000/svg" viewBox="0 0 96.84 18"><defs><style>.cls-1{fill:#fff;}</style></defs><title>产业云logo</title><path class="cls-1" d="M85.24,7.86H83.47a14.62,14.62,0,0,0-1-2.48h1.81a11.46,11.46,0,0,1,.93,2.48h0" transform="translate(-27.58 0)"/><path class="cls-1" d="M111.21,14.69l2.39-6.14h-3.1V6.77h13.9V8.55h-8.73l-2.41,6.12Z" transform="translate(-27.58 0)"/><rect class="cls-1" x="52.87" y="3.32" width="12.99" height="1.76"/><rect class="cls-1" x="67.48" y="14.29" width="13.86" height="1.76"/><rect class="cls-1" x="93.51" y="7.85" width="13" height="1.76" transform="translate(81.16 -91.28) rotate(90)"/><rect class="cls-1" x="97.47" y="7.85" width="13" height="1.76" transform="translate(85.12 -95.24) rotate(90)"/><path class="cls-1" d="M75,13.75a4.51,4.51,0,0,1-3.9-2.23,4.51,4.51,0,0,1-3.9,2.23h-.11V12.32h.09a3,3,0,0,0,3-2.06V10h1.73v.29a3.16,3.16,0,0,0,3,2.06h.09v1.44Z" transform="translate(-27.58 0)"/><path class="cls-1" d="M53.85,8.34h5.26v5.31a.59.59,0,0,1-.19.46.67.67,0,0,1-.46.17H56.22V16h2.58A1.93,1.93,0,0,0,61,13.93V8.34h1.59V6.59H53.85Z" transform="translate(-27.58 0)"/><path class="cls-1" d="M53.2,2.28h-1.9A5.46,5.46,0,0,1,50.35,4a4.29,4.29,0,0,1-1.62,1.27v2a6.68,6.68,0,0,0,2.71-1.85A8.75,8.75,0,0,0,53.2,2.28Z" transform="translate(-27.58 0)"/><rect class="cls-1" x="26.72" y="2.55" width="7.88" height="1.73"/><path class="cls-1" d="M50.76,8.35a5.93,5.93,0,0,1-2,1.73v2.12a10.78,10.78,0,0,0,1-.54,7.5,7.5,0,0,0,.91-.63v5h1.83v-7A8.64,8.64,0,0,0,53,8,8.87,8.87,0,0,0,53.74,6H51.88A5.59,5.59,0,0,1,50.76,8.35Z" transform="translate(-27.58 0)"/><path class="cls-1" d="M74.53,8V5.34a.64.64,0,0,0-.64-.64H68.23a.64.64,0,0,0-.64.64V8ZM69.27,6.85v-1h3.59v1Z" transform="translate(-27.58 0)"/><path class="cls-1" d="M73.38,11.54v-2H68.73v2H67.05V9.11a.64.64,0,0,1,.64-.64h6.73a.64.64,0,0,1,.64.64v2.43Z" transform="translate(-27.58 0)"/><path class="cls-1" d="M77.83,4.17a2,2,0,0,0-.47-1.39,1.89,1.89,0,0,0-1.45-.51H64.28V16H77.83Zm-1.7,10.12H66V4h9.43a1,1,0,0,1,.54.15.52.52,0,0,1,.17.41Z" transform="translate(-27.58 0)"/><rect class="cls-1" x="58.4" y="2.25" width="1.93" height="1.65"/><polyline class="cls-1" points="61 7.86 61.96 5.38 63.8 5.38 62.86 7.86 61 7.86 61 7.86"/><path class="cls-1" d="M79.77,16.05a2.61,2.61,0,0,0,2.6-2.6V9.51h11.1V7.76H80.41v5.69a.64.64,0,0,1-.64.64h-.16v2Z" transform="translate(-27.58 0)"/><path class="cls-1" d="M110.53,14.35A50.43,50.43,0,0,0,122.42,13v1.79S119.1,16,110.53,16Z" transform="translate(-27.58 0)"/><rect class="cls-1" x="83.3" y="2.73" width="13.14" height="1.84"/><polygon class="cls-1" points="92.77 10.36 94.77 10.36 96.84 16.05 94.86 16.05 92.77 10.36"/><path class="cls-1" d="M104.55,9.42l.08,0A3.42,3.42,0,0,0,105.89,8a5.89,5.89,0,0,0,.61-2.27V5.6h2l0,.18a9.1,9.1,0,0,1-1.14,3.61,5.47,5.47,0,0,1-2.61,2.39l-.22.09Z" transform="translate(-27.58 0)"/><polyline class="cls-1" points="67.65 5.6 70.51 11.48 72.63 11.48 69.79 5.6 67.78 5.6"/><path class="cls-1" d="M37.3,1.46l-.39,0h-.07a3.73,3.73,0,0,0-.54,0h-.15a3.68,3.68,0,0,0-.44.12l-.08,0-.05,0-.13.05-.31.15-.07,0,0,0L34.94,2l-.07,0-.07,0-.06,0-.1.08,0,0-.11.09-.12.1-.06.06-.06.06-.1.11a3.6,3.6,0,0,0-.25.31l-.14.2,0,.07,0,.07,0,.07,0,.07-.1.22-.06.15,0,.08,0,.08,0,.07v0l0,.07,0,.08a3.65,3.65,0,0,0-.09.5v.18s0,0,0,.06,0,.05,0,.08,0,.06,0,.1,0,.18,0,.27,0,.14,0,.22v0l0,.13,0,.11,0,.08,0,.08v0l0,.08,0,.07,0,0a3,3,0,0,0,.11.29l0,.08,0,.09.05.1,0,0,0,.09.06.09h0a3.4,3.4,0,0,1,5.33.37,4.65,4.65,0,0,1,5.21,4.63,4.64,4.64,0,0,1-.92,2.77h0a.29.29,0,0,0,.51.15h0l0,0h0A8.68,8.68,0,0,0,37.3,1.46Z" transform="translate(-27.58 0)"/><path class="cls-1" d="M39.62,8.39h-.1a3.42,3.42,0,0,1-3,4.44,4.66,4.66,0,0,1-8.54,0h0l-.11,0a.29.29,0,0,0-.29.29.3.3,0,0,0,0,.11h0l0,0a8.83,8.83,0,0,0,14.85,1.24,3.74,3.74,0,0,0,.36-.51,3.78,3.78,0,0,0,.51-1.89A3.73,3.73,0,0,0,39.62,8.39Z" transform="translate(-27.58 0)"/><path class="cls-1" d="M36.92.51a4.69,4.69,0,0,1,.56,0A.29.29,0,0,0,37.34,0h0l-.58,0a8.72,8.72,0,0,0-8.79,8.65,8.51,8.51,0,0,0,.87,3.77,3.69,3.69,0,0,0,.36.66,3.64,3.64,0,0,0,.22.29h0l.06.08.07.07.14.14a3.71,3.71,0,0,0,2.58,1,3.63,3.63,0,0,0,.51,0l.13,0,.19,0,.07,0,.11,0,.1,0,.06,0,.1,0,.12,0,.09,0,.06,0,.07,0,.09,0,.07,0,.24-.14.06,0,.07,0,.09-.06,0,0,.09-.07.19-.16.08-.08h0l.08-.08h0l.08-.08h0l.07-.09.07-.08,0,0,0-.06.09-.13L35.4,13l.06-.1h0l0-.06,0,0h0A3.42,3.42,0,0,1,33.18,8,4.66,4.66,0,0,1,36.92.51Z" transform="translate(-27.58 0)"/></svg>