<?xml version="1.0" encoding="UTF-8"?>
<svg width="1640px" height="291px" viewBox="0 0 1640 291" version="1.1" xmlns="http://www.w3.org/2000/svg" xmlns:xlink="http://www.w3.org/1999/xlink">
    <!-- Generator: Sketch 48.2 (47327) - http://www.bohemiancoding.com/sketch -->
    <title>标题</title>
    <desc>Created with Sketch.</desc>
    <defs>
        <path d="M6,0 L1634,0 C1637.31371,-6.08718376e-16 1640,2.6862915 1640,6 L1640,285 C1640,288.313708 1637.31371,291 1634,291 L809.336269,291 L6,291 C2.6862915,291 4.05812251e-16,288.313708 0,285 L0,6 C-4.05812251e-16,2.6862915 2.6862915,6.08718376e-16 6,0 Z" id="path-1"></path>
        <filter x="-18.1%" y="-188.7%" width="136.3%" height="477.4%" filterUnits="objectBoundingBox" id="filter-3">
            <feGaussianBlur stdDeviation="25.1618304" in="SourceGraphic"></feGaussianBlur>
        </filter>
        <linearGradient x1="0%" y1="0%" x2="100%" y2="0%" id="linearGradient-4">
            <stop stop-color="#F3F4F6" offset="0%"></stop>
            <stop stop-color="#D9D9D9" offset="52.1863042%"></stop>
            <stop stop-color="#F3F4F6" offset="100%"></stop>
        </linearGradient>
        <rect id="path-5" x="124" y="82" width="420" height="1"></rect>
        <filter x="-0.1%" y="-50.0%" width="100.2%" height="300.0%" filterUnits="objectBoundingBox" id="filter-6">
            <feOffset dx="0" dy="1" in="SourceAlpha" result="shadowOffsetOuter1"></feOffset>
            <feColorMatrix values="0 0 0 0 1   0 0 0 0 1   0 0 0 0 1  0 0 0 0.5 0" type="matrix" in="shadowOffsetOuter1"></feColorMatrix>
        </filter>
        <rect id="path-7" x="124" y="149" width="420" height="1"></rect>
        <filter x="-0.1%" y="-50.0%" width="100.2%" height="300.0%" filterUnits="objectBoundingBox" id="filter-8">
            <feOffset dx="0" dy="1" in="SourceAlpha" result="shadowOffsetOuter1"></feOffset>
            <feColorMatrix values="0 0 0 0 1   0 0 0 0 1   0 0 0 0 1  0 0 0 0.5 0" type="matrix" in="shadowOffsetOuter1"></feColorMatrix>
        </filter>
    </defs>
    <g id="车型卡片" stroke="none" stroke-width="1" fill="none" fill-rule="evenodd" transform="translate(-241.000000, -204.000000)">
        <g id="标题" transform="translate(241.000000, 204.000000)">
            <g>
                <mask id="mask-2" fill="white">
                    <use xlink:href="#path-1"></use>
                </mask>
                <use id="Mask" fill="#FFFFFF" xlink:href="#path-1"></use>
            </g>
            <g id="Group-7" transform="translate(467.000000, 43.000000)">
                <ellipse id="Oval-4" fill="#848484" opacity="0.672101449" filter="url(#filter-3)" cx="368" cy="107" rx="208" ry="20"></ellipse>
                <rect id="Path" fill="#4579E5" x="160" y="31" width="30" height="123"></rect>
                <rect id="Path-Copy" fill="#4579E5" x="232" y="8" width="30" height="146"></rect>
                <rect id="Path-Copy-2" fill="#4579E5" x="304" y="34" width="30" height="120"></rect>
                <rect id="Path-Copy-3" fill="#4579E5" x="376" y="0" width="30" height="154"></rect>
                <rect id="Path-Copy-4" fill="#4579E5" x="448" y="31" width="30" height="123"></rect>
                <rect id="Path-Copy-5" fill="#4579E5" x="520" y="39" width="30" height="116"></rect>
                <rect id="Rectangle-7" fill="#FFFFFF" x="0" y="66" width="720" height="100"></rect>
                <g id="Rectangle-9" opacity="0.400000006">
                    <use fill="black" fill-opacity="1" filter="url(#filter-6)" xlink:href="#path-5"></use>
                    <use fill="url(#linearGradient-4)" fill-rule="evenodd" xlink:href="#path-5"></use>
                </g>
                <g id="Rectangle-9-Copy" opacity="0.400000006">
                    <use fill="black" fill-opacity="1" filter="url(#filter-8)" xlink:href="#path-7"></use>
                    <use fill="url(#linearGradient-4)" fill-rule="evenodd" xlink:href="#path-7"></use>
                </g>
            </g>
            <g id="行圆产业云出品" transform="translate(591.000000, 222.000000)">
                <path d="M1.5,10 C0.671572875,10 0,9.32842712 0,8.5 C0,7.67157288 0.671572875,7 1.5,7 C2.32842712,7 3,7.67157288 3,8.5 C3,9.32842712 2.32842712,10 1.5,10 Z M7.5,10 C6.67157288,10 6,9.32842712 6,8.5 C6,7.67157288 6.67157288,7 7.5,7 C8.32842712,7 9,7.67157288 9,8.5 C9,9.32842712 8.32842712,10 7.5,10 Z M13.5,10 C12.6715729,10 12,9.32842712 12,8.5 C12,7.67157288 12.6715729,7 13.5,7 C14.3284271,7 15,7.67157288 15,8.5 C15,9.32842712 14.3284271,10 13.5,10 Z M1.5,15 C0.671572875,15 0,14.3284271 0,13.5 C0,12.6715729 0.671572875,12 1.5,12 C2.32842712,12 3,12.6715729 3,13.5 C3,14.3284271 2.32842712,15 1.5,15 Z M7.5,15 C6.67157288,15 6,14.3284271 6,13.5 C6,12.6715729 6.67157288,12 7.5,12 C8.32842712,12 9,12.6715729 9,13.5 C9,14.3284271 8.32842712,15 7.5,15 Z M13.5,15 C12.6715729,15 12,14.3284271 12,13.5 C12,12.6715729 12.6715729,12 13.5,12 C14.3284271,12 15,12.6715729 15,13.5 C15,14.3284271 14.3284271,15 13.5,15 Z M1.5,20 C0.671572875,20 0,19.3284271 0,18.5 C0,17.6715729 0.671572875,17 1.5,17 C2.32842712,17 3,17.6715729 3,18.5 C3,19.3284271 2.32842712,20 1.5,20 Z M7.5,20 C6.67157288,20 6,19.3284271 6,18.5 C6,17.6715729 6.67157288,17 7.5,17 C8.32842712,17 9,17.6715729 9,18.5 C9,19.3284271 8.32842712,20 7.5,20 Z M13.5,20 C12.6715729,20 12,19.3284271 12,18.5 C12,17.6715729 12.6715729,17 13.5,17 C14.3284271,17 15,17.6715729 15,18.5 C15,19.3284271 14.3284271,20 13.5,20 Z" id="Combined-Shape" fill="#477BE5" opacity="0.5"></path>
                <rect id="Rectangle-20" fill="#5484E7" x="76" y="9" width="1" height="8"></rect>
                <rect id="Rectangle-20-Copy" fill="#5484E7" x="136" y="9" width="1" height="8"></rect>
                <rect id="Rectangle-20-Copy-2" fill="#5484E7" x="198" y="9" width="1" height="8"></rect>
                <rect id="Rectangle-20-Copy-3" fill="#5484E7" x="260" y="9" width="1" height="8"></rect>
                <rect id="Rectangle-20-Copy-4" fill="#5484E7" x="322" y="9" width="1" height="8"></rect>
                <rect id="Rectangle-20-Copy-5" fill="#5484E7" x="387" y="9" width="1" height="8"></rect>
                <path d="M449.5,9 C448.671573,9 448,8.32842712 448,7.5 C448,6.67157288 448.671573,6 449.5,6 C450.328427,6 451,6.67157288 451,7.5 C451,8.32842712 450.328427,9 449.5,9 Z M455.5,9 C454.671573,9 454,8.32842712 454,7.5 C454,6.67157288 454.671573,6 455.5,6 C456.328427,6 457,6.67157288 457,7.5 C457,8.32842712 456.328427,9 455.5,9 Z M461.5,9 C460.671573,9 460,8.32842712 460,7.5 C460,6.67157288 460.671573,6 461.5,6 C462.328427,6 463,6.67157288 463,7.5 C463,8.32842712 462.328427,9 461.5,9 Z M449.5,14 C448.671573,14 448,13.3284271 448,12.5 C448,11.6715729 448.671573,11 449.5,11 C450.328427,11 451,11.6715729 451,12.5 C451,13.3284271 450.328427,14 449.5,14 Z M455.5,14 C454.671573,14 454,13.3284271 454,12.5 C454,11.6715729 454.671573,11 455.5,11 C456.328427,11 457,11.6715729 457,12.5 C457,13.3284271 456.328427,14 455.5,14 Z M461.5,14 C460.671573,14 460,13.3284271 460,12.5 C460,11.6715729 460.671573,11 461.5,11 C462.328427,11 463,11.6715729 463,12.5 C463,13.3284271 462.328427,14 461.5,14 Z M449.5,19 C448.671573,19 448,18.3284271 448,17.5 C448,16.6715729 448.671573,16 449.5,16 C450.328427,16 451,16.6715729 451,17.5 C451,18.3284271 450.328427,19 449.5,19 Z M455.5,19 C454.671573,19 454,18.3284271 454,17.5 C454,16.6715729 454.671573,16 455.5,16 C456.328427,16 457,16.6715729 457,17.5 C457,18.3284271 456.328427,19 455.5,19 Z M461.5,19 C460.671573,19 460,18.3284271 460,17.5 C460,16.6715729 460.671573,16 461.5,16 C462.328427,16 463,16.6715729 463,17.5 C463,18.3284271 462.328427,19 461.5,19 Z" id="Combined-Shape-Copy-2" fill="#477BE5" opacity="0.5"></path>
                <text font-family="PingFang-SC-Regular, PingFang SC" font-size="18" font-weight="normal" letter-spacing="44.5" fill="#4579E5">
                    <tspan x="35" y="19">行圆产业云出</tspan>
                    <tspan x="410" y="19">品</tspan>
                </text>
            </g>
        </g>
    </g>
</svg>